<svg xmlns:dc="http://purl.org/dc/elements/1.1/" xmlns:cc="http://creativecommons.org/ns#" xmlns:rdf="http://www.w3.org/1999/02/22-rdf-syntax-ns#" xmlns:svg="http://www.w3.org/2000/svg" xmlns="http://www.w3.org/2000/svg" xmlns:xlink="http://www.w3.org/1999/xlink" id="svg461051" viewBox="0 0 1024 768" height="768px" width="1024px" version="1.1">
  <metadata id="metadata461057">
    <rdf:rdf>
      <cc:work rdf:about="">
        <dc:format>image/svg+xml</dc:format>
        <dc:type rdf:resource="http://purl.org/dc/dcmitype/StillImage"></dc:type>
      </cc:work>
    </rdf:rdf>
  </metadata>
  <defs id="defs461055"></defs>
  <linearGradient spreadMethod="pad" y2="30%" x2="-10%" y1="120%" x1="30%" id="3d_gradient2-logo-b84bff87-7c5d-4354-aa87-97964bf5f288">
    <stop id="stop461032" stop-opacity="1" stop-color="#ffffff" offset="0%"></stop>
    <stop id="stop461034" stop-opacity="1" stop-color="#000000" offset="100%"></stop>
  </linearGradient>
  <linearGradient gradientTransform="rotate(-30)" spreadMethod="pad" y2="30%" x2="-10%" y1="120%" x1="30%" id="3d_gradient3-logo-b84bff87-7c5d-4354-aa87-97964bf5f288">
    <stop id="stop461037" stop-opacity="1" stop-color="#ffffff" offset="0%"></stop>
    <stop id="stop461039" stop-opacity="1" stop-color="#cccccc" offset="50%"></stop>
    <stop id="stop461041" stop-opacity="1" stop-color="#000000" offset="100%"></stop>
  </linearGradient>
  <g id="logo-group">
    <image xlink:href="" id="container" x="272" y="144" width="480" height="480" style="display: none;" transform="translate(0 0)"></image>
    <g id="logo-center" transform="translate(0 0)">
      <image xlink:href="" id="icon_container" x="0" y="0" style="display: none;"></image>
      <g id="slogan" style="font-style:normal;font-weight:400;font-size:32px;line-height:1;font-family:'Roboto Slab';font-variant-ligatures:none;text-align:center;text-anchor:middle" transform="translate(0 0)">
        <path id="path461059" style="font-style:normal;font-weight:400;font-size:32px;line-height:1;font-family:'Roboto Slab';font-variant-ligatures:none;text-align:center;text-anchor:middle" d="m 272.6875,-2.015625 q -0.82813,1.15625 -2.03125,1.75 -1.1875,0.59375 -2.76563,0.59375 -3.09375,0 -4.84375,-2.234375 -1.73437,-2.25 -1.73437,-5.90625 v -0.328125 q 0,-4.078125 1.73437,-6.578125 1.75,-2.5 4.875,-2.5 1.5,0 2.64063,0.5625 1.15625,0.546875 1.96875,1.59375 v -6.890625 l -2.54688,-0.4375 V -24.375 h 2.54688 3.07812 v 21.96875 l 2.54688,0.4375 V 0 H 272.9375 Z M 264.39062,-7.8125 q 0,2.546875 1.04688,4.09375 1.04687,1.546875 3.23437,1.546875 1.375,0 2.3125,-0.625 0.9375,-0.625 1.54688,-1.765625 v -7.84375 q -0.59375,-1.0625 -1.54688,-1.6875 -0.95312,-0.625 -2.28125,-0.625 -2.20312,0 -3.26562,1.828125 -1.04688,1.828125 -1.04688,4.75 z" stroke-width="0" stroke-linejoin="miter" stroke-miterlimit="2" fill="#007c91" stroke="#007c91" transform="translate(1.1368683772161603e-13 363.94287812500005) translate(323.83203125000006 56.09375) scale(0.75) translate(-261.3125 24.375)"></path>
        <path id="path461061" style="font-style:normal;font-weight:400;font-size:32px;line-height:1;font-family:'Roboto Slab';font-variant-ligatures:none;text-align:center;text-anchor:middle" d="m 288.20312,0.328125 q -3.53125,0 -5.625,-2.34375 Q 280.5,-4.375 280.5,-8.125 v -0.6875 q 0,-3.609375 2.14062,-6 2.15625,-2.40625 5.09375,-2.40625 3.40625,0 5.15625,2.0625 1.76563,2.0625 1.76563,5.5 v 1.921875 H 283.6875 l -0.0469,0.078125 q 0.0469,2.4375 1.23438,4.015625 1.1875,1.5625 3.32812,1.5625 1.5625,0 2.73438,-0.4375 1.1875,-0.453125 2.04687,-1.234375 l 1.20313,2 q -0.90625,0.875 -2.40625,1.484375 -1.48438,0.59375 -3.57813,0.59375 z m -0.46875,-15.125 q -1.54687,0 -2.64062,1.3125 Q 284,-12.1875 283.75,-10.21875 l 0.0312,0.07813 h 7.79687 v -0.40625 q 0,-1.8125 -0.96875,-3.03125 -0.96875,-1.21875 -2.875,-1.21875 z" stroke-width="0" stroke-linejoin="miter" stroke-miterlimit="2" fill="#007c91" stroke="#007c91" transform="translate(1.1368683772161603e-13 363.94287812500005) translate(338.22265625000006 61.4609375) scale(0.75) translate(-280.5 17.21875)"></path>
        <path id="path461063" style="font-style:normal;font-weight:400;font-size:32px;line-height:1;font-family:'Roboto Slab';font-variant-ligatures:none;text-align:center;text-anchor:middle" d="m 305.26562,-2.078125 q 1.53125,0 2.6875,-0.9375 1.17188,-0.953125 1.17188,-2.328125 h 2.76562 l 0.0312,0.09375 q 0.0781,2.1875 -1.95312,3.890625 -2.01563,1.6875 -4.70313,1.6875 -3.6875,0 -5.64062,-2.40625 -1.9375,-2.40625 -1.9375,-6.046875 v -0.65625 q 0,-3.609375 1.95312,-6.015625 1.95313,-2.421875 5.625,-2.421875 2.03125,0 3.64063,0.671875 1.625,0.671875 2.6875,1.84375 l 0.14062,3.75 h -2.45312 l -0.67188,-2.65625 q -0.54687,-0.53125 -1.40625,-0.859375 -0.85937,-0.328125 -1.9375,-0.328125 -2.42187,0 -3.46875,1.75 -1.03125,1.734375 -1.03125,4.265625 V -8.125 q 0,2.59375 1.03125,4.328125 1.03125,1.71875 3.46875,1.71875 z" stroke-width="0" stroke-linejoin="miter" stroke-miterlimit="2" fill="#007c91" stroke="#007c91" transform="translate(1.1368683772161603e-13 363.94287812500005) translate(351.11324375000004 61.4609375) scale(0.75) translate(-297.68745 17.21875)"></path>
        <path id="path461065" style="font-style:normal;font-weight:400;font-size:32px;line-height:1;font-family:'Roboto Slab';font-variant-ligatures:none;text-align:center;text-anchor:middle" d="m 322.64062,0.328125 q -3.53125,0 -5.625,-2.34375 Q 314.9375,-4.375 314.9375,-8.125 v -0.6875 q 0,-3.609375 2.14062,-6 2.15625,-2.40625 5.09375,-2.40625 3.40625,0 5.15625,2.0625 1.76563,2.0625 1.76563,5.5 v 1.921875 H 318.125 l -0.0469,0.078125 q 0.0469,2.4375 1.23438,4.015625 1.1875,1.5625 3.32812,1.5625 1.5625,0 2.73438,-0.4375 1.1875,-0.453125 2.04687,-1.234375 l 1.20313,2 q -0.90625,0.875 -2.40625,1.484375 -1.48438,0.59375 -3.57813,0.59375 z m -0.46875,-15.125 q -1.54687,0 -2.64062,1.3125 -1.09375,1.296875 -1.34375,3.265625 l 0.0312,0.07813 h 7.79687 v -0.40625 q 0,-1.8125 -0.96875,-3.03125 -0.96875,-1.21875 -2.875,-1.21875 z" stroke-width="0" stroke-linejoin="miter" stroke-miterlimit="2" fill="#007c91" stroke="#007c91" transform="translate(1.1368683772161603e-13 363.94287812500005) translate(364.05078125000006 61.4609375) scale(0.75) translate(-314.9375 17.21875)"></path>
        <path id="path461067" style="font-style:normal;font-weight:400;font-size:32px;line-height:1;font-family:'Roboto Slab';font-variant-ligatures:none;text-align:center;text-anchor:middle" d="m 331.65625,-1.96875 2.54687,-0.4375 v -12.078125 l -2.54687,-0.4375 v -1.984375 h 5.29687 l 0.21875,2.515625 q 0.84375,-1.34375 2.10938,-2.078125 1.28125,-0.75 2.90625,-0.75 2.73437,0 4.23437,1.609375 1.5,1.59375 1.5,4.9375 v 8.265625 l 2.54688,0.4375 V 0 h -8.17188 v -1.96875 l 2.54688,-0.4375 v -8.203125 q 0,-2.234375 -0.89063,-3.171875 -0.875,-0.9375 -2.6875,-0.9375 -1.32812,0 -2.35937,0.640625 -1.01563,0.640625 -1.625,1.75 v 9.921875 l 2.54687,0.4375 V 0 h -8.17187 z" stroke-width="0" stroke-linejoin="miter" stroke-miterlimit="2" fill="#007c91" stroke="#007c91" transform="translate(1.1368683772161603e-13 363.94287812500005) translate(376.58984375000006 61.4609375) scale(0.75) translate(-331.65625 17.21875)"></path>
        <path id="path461069" style="font-style:normal;font-weight:400;font-size:32px;line-height:1;font-family:'Roboto Slab';font-variant-ligatures:none;text-align:center;text-anchor:middle" d="m 358.10937,-20.984375 v 4.078125 h 3.20313 v 2.28125 h -3.20313 v 10.265625 q 0,1.1875 0.48438,1.671875 0.5,0.484375 1.3125,0.484375 0.40625,0 0.90625,-0.0625 0.51562,-0.078125 0.85937,-0.15625 l 0.42188,2.109375 q -0.4375,0.28125 -1.28125,0.453125 -0.84375,0.1875 -1.6875,0.1875 -1.875,0 -2.98438,-1.125 -1.10937,-1.140625 -1.10937,-3.5625 V -14.625 h -2.67188 v -2.28125 h 2.67188 v -4.078125 z" stroke-width="0" stroke-linejoin="miter" stroke-miterlimit="2" fill="#007c91" stroke="#007c91" transform="translate(1.1368683772161603e-13 363.94287812500005) translate(392.1171837500001 58.63671875) scale(0.75) translate(-352.35937 20.984375)"></path>
        <path id="path461071" style="font-style:normal;font-weight:400;font-size:32px;line-height:1;font-family:'Roboto Slab';font-variant-ligatures:none;text-align:center;text-anchor:middle" d="m 364.48437,-14.921875 v -1.984375 h 5.29688 l 0.29687,2.453125 q 0.71875,-1.296875 1.76563,-2.03125 1.0625,-0.734375 2.42187,-0.734375 0.35938,0 0.73438,0.0625 0.39062,0.04687 0.59375,0.109375 l -0.40625,2.859375 -1.75,-0.09375 q -1.21875,0 -2.04688,0.578125 -0.82812,0.5625 -1.28125,1.59375 v 9.703125 l 2.54688,0.4375 V 0 h -8.17188 v -1.96875 l 2.54688,-0.4375 v -12.078125 z" stroke-width="0" stroke-linejoin="miter" stroke-miterlimit="2" fill="#007c91" stroke="#007c91" transform="translate(1.1368683772161603e-13 363.94287812500005) translate(401.2109337500001 61.4609375) scale(0.75) translate(-364.48437 17.21875)"></path>
        <path id="path461073" style="font-style:normal;font-weight:400;font-size:32px;line-height:1;font-family:'Roboto Slab';font-variant-ligatures:none;text-align:center;text-anchor:middle" d="m 388.76562,0 q -0.14062,-0.6875 -0.21875,-1.234375 -0.0781,-0.546875 -0.10937,-1.09375 -0.89063,1.140625 -2.23438,1.90625 -1.32812,0.75 -2.84375,0.75 -2.64062,0 -4.01562,-1.28125 -1.375,-1.296875 -1.375,-3.640625 0,-2.40625 1.9375,-3.703125 1.95312,-1.3125 5.34375,-1.3125 h 3.17187 v -1.96875 q 0,-1.484375 -0.9375,-2.34375 -0.9375,-0.875 -2.60937,-0.875 -1.15625,0 -2.04688,0.296875 -0.875,0.296875 -1.42187,0.8125 l -0.32813,1.78125 h -2.375 v -3.28125 q 1.15625,-0.921875 2.79688,-1.46875 1.64062,-0.5625 3.5625,-0.5625 2.875,0 4.65625,1.46875 1.78125,1.46875 1.78125,4.203125 v 8.140625 q 0,0.328125 0,0.640625 0.0156,0.3125 0.0469,0.625 l 1.25,0.171875 V 0 Z m -4.95312,-2.25 q 1.53125,0 2.79687,-0.734375 1.26563,-0.734375 1.8125,-1.765625 v -2.78125 h -3.28125 q -1.89062,0 -3,0.875 -1.09375,0.875 -1.09375,2.125 0,1.109375 0.6875,1.703125 0.6875,0.578125 2.07813,0.578125 z" stroke-width="0" stroke-linejoin="miter" stroke-miterlimit="2" fill="#007c91" stroke="#007c91" transform="translate(1.1368683772161603e-13 363.94287812500005) translate(411.3242187500001 61.4609375) scale(0.75) translate(-377.96875 17.21875)"></path>
        <path id="path461075" style="font-style:normal;font-weight:400;font-size:32px;line-height:1;font-family:'Roboto Slab';font-variant-ligatures:none;text-align:center;text-anchor:middle" d="M 394.9375,-22.390625 V -24.375 h 5.625 v 21.96875 l 2.54687,0.4375 V 0 h -8.17187 v -1.96875 l 2.54687,-0.4375 v -19.546875 z" stroke-width="0" stroke-linejoin="miter" stroke-miterlimit="2" fill="#007c91" stroke="#007c91" transform="translate(1.1368683772161603e-13 363.94287812500005) translate(424.0507812500001 56.09375) scale(0.75) translate(-394.9375 24.375)"></path>
        <path id="path461077" style="font-style:normal;font-weight:400;font-size:32px;line-height:1;font-family:'Roboto Slab';font-variant-ligatures:none;text-align:center;text-anchor:middle" d="m 405.42187,-1.96875 2.54688,-0.4375 v -12.078125 l -2.54688,-0.4375 v -1.984375 h 5.625 v 14.5 l 2.54688,0.4375 V 0 h -8.17188 z m 5.625,-19.265625 h -3.07812 V -24.375 h 3.07812 z" stroke-width="0" stroke-linejoin="miter" stroke-miterlimit="2" fill="#007c91" stroke="#007c91" transform="translate(1.1368683772161603e-13 363.94287812500005) translate(431.9140587500001 56.09375) scale(0.75) translate(-405.42187 24.375)"></path>
        <path id="path461079" style="font-style:normal;font-weight:400;font-size:32px;line-height:1;font-family:'Roboto Slab';font-variant-ligatures:none;text-align:center;text-anchor:middle" d="m 419.9375,-2.40625 h 6.90625 l 0.25,-2.609375 h 2.60937 V 0 h -13.42187 v -2.15625 l 9.14062,-12.3125 h -6.1875 L 419,-11.875 h -2.625 v -5.03125 h 12.8125 v 2.09375 z" stroke-width="0" stroke-linejoin="miter" stroke-miterlimit="2" fill="#007c91" stroke="#007c91" transform="translate(1.1368683772161603e-13 363.94287812500005) translate(440.0585937500001 61.6953125) scale(0.75) translate(-416.28125 16.90625)"></path>
        <path id="path461081" style="font-style:normal;font-weight:400;font-size:32px;line-height:1;font-family:'Roboto Slab';font-variant-ligatures:none;text-align:center;text-anchor:middle" d="m 440.32812,0.328125 q -3.53125,0 -5.625,-2.34375 Q 432.625,-4.375 432.625,-8.125 v -0.6875 q 0,-3.609375 2.14062,-6 2.15625,-2.40625 5.09375,-2.40625 3.40625,0 5.15625,2.0625 1.76563,2.0625 1.76563,5.5 v 1.921875 H 435.8125 l -0.0469,0.078125 q 0.0469,2.4375 1.23438,4.015625 1.1875,1.5625 3.32812,1.5625 1.5625,0 2.73438,-0.4375 Q 444.25,-2.96875 445.10937,-3.75 l 1.20313,2 q -0.90625,0.875 -2.40625,1.484375 -1.48438,0.59375 -3.57813,0.59375 z m -0.46875,-15.125 q -1.54687,0 -2.64062,1.3125 -1.09375,1.296875 -1.34375,3.265625 l 0.0312,0.07813 h 7.79687 v -0.40625 q 0,-1.8125 -0.96875,-3.03125 -0.96875,-1.21875 -2.875,-1.21875 z" stroke-width="0" stroke-linejoin="miter" stroke-miterlimit="2" fill="#007c91" stroke="#007c91" transform="translate(1.1368683772161603e-13 363.94287812500005) translate(452.3164062500001 61.4609375) scale(0.75) translate(-432.625 17.21875)"></path>
        <path id="path461083" style="font-style:normal;font-weight:400;font-size:32px;line-height:1;font-family:'Roboto Slab';font-variant-ligatures:none;text-align:center;text-anchor:middle" d="m 461.1875,-2.015625 q -0.82813,1.15625 -2.03125,1.75 -1.1875,0.59375 -2.76563,0.59375 -3.09375,0 -4.84375,-2.234375 -1.73437,-2.25 -1.73437,-5.90625 v -0.328125 q 0,-4.078125 1.73437,-6.578125 1.75,-2.5 4.875,-2.5 1.5,0 2.64063,0.5625 1.15625,0.546875 1.96875,1.59375 v -6.890625 l -2.54688,-0.4375 V -24.375 h 2.54688 3.07812 v 21.96875 l 2.54688,0.4375 V 0 H 461.4375 Z M 452.89062,-7.8125 q 0,2.546875 1.04688,4.09375 1.04687,1.546875 3.23437,1.546875 1.375,0 2.3125,-0.625 0.9375,-0.625 1.54688,-1.765625 v -7.84375 q -0.59375,-1.0625 -1.54688,-1.6875 -0.95312,-0.625 -2.28125,-0.625 -2.20312,0 -3.26562,1.828125 -1.04688,1.828125 -1.04688,4.75 z" stroke-width="0" stroke-linejoin="miter" stroke-miterlimit="2" fill="#007c91" stroke="#007c91" transform="translate(1.1368683772161603e-13 363.94287812500005) translate(465.2070312500001 56.09375) scale(0.75) translate(-449.8125 24.375)"></path>
        <path id="path461085" style="font-style:normal;font-weight:400;font-size:32px;line-height:1;font-family:'Roboto Slab';font-variant-ligatures:none;text-align:center;text-anchor:middle" d="m 488.3125,-2.015625 q -0.82813,1.15625 -2.03125,1.75 -1.1875,0.59375 -2.76563,0.59375 -3.09375,0 -4.84375,-2.234375 -1.73437,-2.25 -1.73437,-5.90625 v -0.328125 q 0,-4.078125 1.73437,-6.578125 1.75,-2.5 4.875,-2.5 1.5,0 2.64063,0.5625 1.15625,0.546875 1.96875,1.59375 v -6.890625 l -2.54688,-0.4375 V -24.375 h 2.54688 3.07812 v 21.96875 l 2.54688,0.4375 V 0 H 488.5625 Z M 480.01562,-7.8125 q 0,2.546875 1.04688,4.09375 1.04687,1.546875 3.23437,1.546875 1.375,0 2.3125,-0.625 0.9375,-0.625 1.54688,-1.765625 v -7.84375 q -0.59375,-1.0625 -1.54688,-1.6875 -0.95312,-0.625 -2.28125,-0.625 -2.20312,0 -3.26562,1.828125 -1.04688,1.828125 -1.04688,4.75 z" stroke-width="0" stroke-linejoin="miter" stroke-miterlimit="2" fill="#007c91" stroke="#007c91" transform="translate(1.1368683772161603e-13 363.94287812500005) translate(485.5507812500001 56.09375) scale(0.75) translate(-476.9375 24.375)"></path>
        <path id="path461087" style="font-style:normal;font-weight:400;font-size:32px;line-height:1;font-family:'Roboto Slab';font-variant-ligatures:none;text-align:center;text-anchor:middle" d="m 496.10937,-1.96875 2.54688,-0.4375 v -12.078125 l -2.54688,-0.4375 v -1.984375 h 5.625 v 14.5 l 2.54688,0.4375 V 0 h -8.17188 z m 5.625,-19.265625 h -3.07812 V -24.375 h 3.07812 z" stroke-width="0" stroke-linejoin="miter" stroke-miterlimit="2" fill="#007c91" stroke="#007c91" transform="translate(1.1368683772161603e-13 363.94287812500005) translate(499.9296837500001 56.09375) scale(0.75) translate(-496.10937 24.375)"></path>
        <path id="path461089" style="font-style:normal;font-weight:400;font-size:32px;line-height:1;font-family:'Roboto Slab';font-variant-ligatures:none;text-align:center;text-anchor:middle" d="m 506.625,-8.140625 q 0,-4.078125 1.78125,-6.578125 1.78125,-2.5 4.92187,-2.5 1.59375,0 2.79688,0.625 1.20312,0.625 2.01562,1.8125 l 0.28125,-2.125 h 2.59375 v 16.6875 q 0,3.28125 -1.82812,5.15625 -1.82813,1.890625 -5.20313,1.890625 -1.21875,0 -2.64062,-0.34375 -1.42188,-0.328125 -2.5,-0.90625 L 509.64062,3.1875 q 0.85938,0.453125 2.03125,0.75 1.17188,0.296875 2.28125,0.296875 2.0625,0 3.01563,-1.15625 0.96875,-1.15625 0.96875,-3.296875 v -1.609375 q -0.82813,1.0625 -1.98438,1.609375 -1.15625,0.546875 -2.65625,0.546875 -3.10937,0 -4.89062,-2.25 -1.78125,-2.25 -1.78125,-5.890625 z m 3.07812,0.328125 q 0,2.546875 1.07813,4.09375 1.07812,1.546875 3.28125,1.546875 1.39062,0 2.32812,-0.625 0.9375,-0.640625 1.54688,-1.796875 V -12.375 q -0.59375,-1.078125 -1.54688,-1.703125 -0.95312,-0.640625 -2.29687,-0.640625 -2.20313,0 -3.29688,1.84375 -1.09375,1.84375 -1.09375,4.734375 z" stroke-width="0" stroke-linejoin="miter" stroke-miterlimit="2" fill="#007c91" stroke="#007c91" transform="translate(1.1368683772161603e-13 363.94287812500005) translate(507.8164062500001 61.4609375) scale(0.75) translate(-506.625 17.21875)"></path>
        <path id="path461091" style="font-style:normal;font-weight:400;font-size:32px;line-height:1;font-family:'Roboto Slab';font-variant-ligatures:none;text-align:center;text-anchor:middle" d="m 524.73437,-1.96875 2.54688,-0.4375 v -12.078125 l -2.54688,-0.4375 v -1.984375 h 5.625 v 14.5 l 2.54688,0.4375 V 0 h -8.17188 z m 5.625,-19.265625 h -3.07812 V -24.375 h 3.07812 z" stroke-width="0" stroke-linejoin="miter" stroke-miterlimit="2" fill="#007c91" stroke="#007c91" transform="translate(1.1368683772161603e-13 363.94287812500005) translate(521.3984337500001 56.09375) scale(0.75) translate(-524.73437 24.375)"></path>
        <path id="path461093" style="font-style:normal;font-weight:400;font-size:32px;line-height:1;font-family:'Roboto Slab';font-variant-ligatures:none;text-align:center;text-anchor:middle" d="m 540.60937,-20.984375 v 4.078125 h 3.20313 v 2.28125 h -3.20313 v 10.265625 q 0,1.1875 0.48438,1.671875 0.5,0.484375 1.3125,0.484375 0.40625,0 0.90625,-0.0625 0.51562,-0.078125 0.85937,-0.15625 l 0.42188,2.109375 q -0.4375,0.28125 -1.28125,0.453125 -0.84375,0.1875 -1.6875,0.1875 -1.875,0 -2.98438,-1.125 -1.10937,-1.140625 -1.10937,-3.5625 V -14.625 h -2.67188 v -2.28125 h 2.67188 v -4.078125 z" stroke-width="0" stroke-linejoin="miter" stroke-miterlimit="2" fill="#007c91" stroke="#007c91" transform="translate(1.1368683772161603e-13 363.94287812500005) translate(528.9921837500001 58.63671875) scale(0.75) translate(-534.85937 20.984375)"></path>
        <path id="path461095" style="font-style:normal;font-weight:400;font-size:32px;line-height:1;font-family:'Roboto Slab';font-variant-ligatures:none;text-align:center;text-anchor:middle" d="m 558.01562,0 q -0.14062,-0.6875 -0.21875,-1.234375 -0.0781,-0.546875 -0.10937,-1.09375 -0.89063,1.140625 -2.23438,1.90625 -1.32812,0.75 -2.84375,0.75 -2.64062,0 -4.01562,-1.28125 -1.375,-1.296875 -1.375,-3.640625 0,-2.40625 1.9375,-3.703125 1.95312,-1.3125 5.34375,-1.3125 h 3.17187 v -1.96875 q 0,-1.484375 -0.9375,-2.34375 -0.9375,-0.875 -2.60937,-0.875 -1.15625,0 -2.04688,0.296875 -0.875,0.296875 -1.42187,0.8125 l -0.32813,1.78125 h -2.375 v -3.28125 q 1.15625,-0.921875 2.79688,-1.46875 1.64062,-0.5625 3.5625,-0.5625 2.875,0 4.65625,1.46875 1.78125,1.46875 1.78125,4.203125 v 8.140625 q 0,0.328125 0,0.640625 0.0156,0.3125 0.0469,0.625 l 1.25,0.171875 V 0 Z m -4.95312,-2.25 q 1.53125,0 2.79687,-0.734375 1.26563,-0.734375 1.8125,-1.765625 v -2.78125 h -3.28125 q -1.89062,0 -3,0.875 -1.09375,0.875 -1.09375,2.125 0,1.109375 0.6875,1.703125 0.6875,0.578125 2.07813,0.578125 z" stroke-width="0" stroke-linejoin="miter" stroke-miterlimit="2" fill="#007c91" stroke="#007c91" transform="translate(1.1368683772161603e-13 363.94287812500005) translate(538.2617187500001 61.4609375) scale(0.75) translate(-547.21875 17.21875)"></path>
        <path id="path461097" style="font-style:normal;font-weight:400;font-size:32px;line-height:1;font-family:'Roboto Slab';font-variant-ligatures:none;text-align:center;text-anchor:middle" d="M 564.1875,-22.390625 V -24.375 h 5.625 v 21.96875 l 2.54687,0.4375 V 0 h -8.17187 v -1.96875 l 2.54687,-0.4375 v -19.546875 z" stroke-width="0" stroke-linejoin="miter" stroke-miterlimit="2" fill="#007c91" stroke="#007c91" transform="translate(1.1368683772161603e-13 363.94287812500005) translate(550.98828125 56.09375) scale(0.75) translate(-564.1875 24.375)"></path>
        <path id="path461099" style="font-style:normal;font-weight:400;font-size:32px;line-height:1;font-family:'Roboto Slab';font-variant-ligatures:none;text-align:center;text-anchor:middle" d="M 582.1875,-22.390625 V -24.375 h 5.625 v 21.96875 l 2.54687,0.4375 V 0 h -8.17187 v -1.96875 l 2.54687,-0.4375 v -19.546875 z" stroke-width="0" stroke-linejoin="miter" stroke-miterlimit="2" fill="#007c91" stroke="#007c91" transform="translate(1.1368683772161603e-13 363.94287812500005) translate(564.48828125 56.09375) scale(0.75) translate(-582.1875 24.375)"></path>
        <path id="path461101" style="font-style:normal;font-weight:400;font-size:32px;line-height:1;font-family:'Roboto Slab';font-variant-ligatures:none;text-align:center;text-anchor:middle" d="m 600.39062,0.328125 q -3.53125,0 -5.625,-2.34375 Q 592.6875,-4.375 592.6875,-8.125 v -0.6875 q 0,-3.609375 2.14062,-6 2.15625,-2.40625 5.09375,-2.40625 3.40625,0 5.15625,2.0625 1.76563,2.0625 1.76563,5.5 v 1.921875 H 595.875 l -0.0469,0.078125 q 0.0469,2.4375 1.23438,4.015625 1.1875,1.5625 3.32812,1.5625 1.5625,0 2.73438,-0.4375 1.1875,-0.453125 2.04687,-1.234375 l 1.20313,2 q -0.90625,0.875 -2.40625,1.484375 -1.48438,0.59375 -3.57813,0.59375 z m -0.46875,-15.125 q -1.54687,0 -2.64062,1.3125 -1.09375,1.296875 -1.34375,3.265625 l 0.0312,0.07813 h 7.79687 v -0.40625 q 0,-1.8125 -0.96875,-3.03125 -0.96875,-1.21875 -2.875,-1.21875 z" stroke-width="0" stroke-linejoin="miter" stroke-miterlimit="2" fill="#007c91" stroke="#007c91" transform="translate(1.1368683772161603e-13 363.94287812500005) translate(572.36328125 61.4609375) scale(0.75) translate(-592.6875 17.21875)"></path>
        <path id="path461103" style="font-style:normal;font-weight:400;font-size:32px;line-height:1;font-family:'Roboto Slab';font-variant-ligatures:none;text-align:center;text-anchor:middle" d="m 609.875,-8.140625 q 0,-4.078125 1.78125,-6.578125 1.78125,-2.5 4.92187,-2.5 1.59375,0 2.79688,0.625 1.20312,0.625 2.01562,1.8125 l 0.28125,-2.125 h 2.59375 v 16.6875 q 0,3.28125 -1.82812,5.15625 -1.82813,1.890625 -5.20313,1.890625 -1.21875,0 -2.64062,-0.34375 -1.42188,-0.328125 -2.5,-0.90625 L 612.89062,3.1875 q 0.85938,0.453125 2.03125,0.75 1.17188,0.296875 2.28125,0.296875 2.0625,0 3.01563,-1.15625 0.96875,-1.15625 0.96875,-3.296875 v -1.609375 q -0.82813,1.0625 -1.98438,1.609375 -1.15625,0.546875 -2.65625,0.546875 -3.10937,0 -4.89062,-2.25 -1.78125,-2.25 -1.78125,-5.890625 z m 3.07812,0.328125 q 0,2.546875 1.07813,4.09375 1.07812,1.546875 3.28125,1.546875 1.39062,0 2.32812,-0.625 0.9375,-0.640625 1.54688,-1.796875 V -12.375 q -0.59375,-1.078125 -1.54688,-1.703125 -0.95312,-0.640625 -2.29687,-0.640625 -2.20313,0 -3.29688,1.84375 -1.09375,1.84375 -1.09375,4.734375 z" stroke-width="0" stroke-linejoin="miter" stroke-miterlimit="2" fill="#007c91" stroke="#007c91" transform="translate(1.1368683772161603e-13 363.94287812500005) translate(585.25390625 61.4609375) scale(0.75) translate(-609.875 17.21875)"></path>
        <path id="path461105" style="font-style:normal;font-weight:400;font-size:32px;line-height:1;font-family:'Roboto Slab';font-variant-ligatures:none;text-align:center;text-anchor:middle" d="m 639.01562,0 q -0.14062,-0.6875 -0.21875,-1.234375 -0.0781,-0.546875 -0.10937,-1.09375 -0.89063,1.140625 -2.23438,1.90625 -1.32812,0.75 -2.84375,0.75 -2.64062,0 -4.01562,-1.28125 -1.375,-1.296875 -1.375,-3.640625 0,-2.40625 1.9375,-3.703125 1.95312,-1.3125 5.34375,-1.3125 h 3.17187 v -1.96875 q 0,-1.484375 -0.9375,-2.34375 -0.9375,-0.875 -2.60937,-0.875 -1.15625,0 -2.04688,0.296875 -0.875,0.296875 -1.42187,0.8125 l -0.32813,1.78125 h -2.375 v -3.28125 q 1.15625,-0.921875 2.79688,-1.46875 1.64062,-0.5625 3.5625,-0.5625 2.875,0 4.65625,1.46875 1.78125,1.46875 1.78125,4.203125 v 8.140625 q 0,0.328125 0,0.640625 0.0156,0.3125 0.0469,0.625 l 1.25,0.171875 V 0 Z m -4.95312,-2.25 q 1.53125,0 2.79687,-0.734375 1.26563,-0.734375 1.8125,-1.765625 v -2.78125 h -3.28125 q -1.89062,0 -3,0.875 -1.09375,0.875 -1.09375,2.125 0,1.109375 0.6875,1.703125 0.6875,0.578125 2.07813,0.578125 z" stroke-width="0" stroke-linejoin="miter" stroke-miterlimit="2" fill="#007c91" stroke="#007c91" transform="translate(1.1368683772161603e-13 363.94287812500005) translate(599.01171875 61.4609375) scale(0.75) translate(-628.21875 17.21875)"></path>
        <path id="path461107" style="font-style:normal;font-weight:400;font-size:32px;line-height:1;font-family:'Roboto Slab';font-variant-ligatures:none;text-align:center;text-anchor:middle" d="m 653.20312,-2.078125 q 1.53125,0 2.6875,-0.9375 1.17188,-0.953125 1.17188,-2.328125 h 2.76562 l 0.0312,0.09375 q 0.0781,2.1875 -1.95312,3.890625 -2.01563,1.6875 -4.70313,1.6875 -3.6875,0 -5.64062,-2.40625 -1.9375,-2.40625 -1.9375,-6.046875 v -0.65625 q 0,-3.609375 1.95312,-6.015625 1.95313,-2.421875 5.625,-2.421875 2.03125,0 3.64063,0.671875 1.625,0.671875 2.6875,1.84375 l 0.14062,3.75 h -2.45312 l -0.67188,-2.65625 q -0.54687,-0.53125 -1.40625,-0.859375 -0.85937,-0.328125 -1.9375,-0.328125 -2.42187,0 -3.46875,1.75 -1.03125,1.734375 -1.03125,4.265625 V -8.125 q 0,2.59375 1.03125,4.328125 1.03125,1.71875 3.46875,1.71875 z" stroke-width="0" stroke-linejoin="miter" stroke-miterlimit="2" fill="#007c91" stroke="#007c91" transform="translate(1.1368683772161603e-13 363.94287812500005) translate(612.0663687499999 61.4609375) scale(0.75) translate(-645.62495 17.21875)"></path>
        <path id="path461109" style="font-style:normal;font-weight:400;font-size:32px;line-height:1;font-family:'Roboto Slab';font-variant-ligatures:none;text-align:center;text-anchor:middle" d="m 678.92187,-14.921875 -1.51562,0.234375 -6.4375,17.28125 q -0.64063,1.703125 -1.84375,2.96875 -1.20313,1.265625 -3.23438,1.265625 -0.35937,0 -0.9375,-0.09375 Q 664.375,6.65625 664.0625,6.578125 L 664.375,4.15625 q -0.0937,-0.015625 0.54687,0.03125 0.65625,0.046875 0.82813,0.046875 0.98437,0 1.59375,-0.859375 0.60937,-0.84375 1.0625,-1.953125 l 0.73437,-1.75 -5.57812,-14.34375 -1.54688,-0.25 v -1.984375 h 6.82813 v 1.984375 l -1.90625,0.3125 2.92187,8.34375 0.5625,2.15625 h 0.0937 l 3.51563,-10.5 -1.92188,-0.3125 v -1.984375 h 6.8125 z" stroke-width="0" stroke-linejoin="miter" stroke-miterlimit="2" fill="#007c91" stroke="#007c91" transform="translate(1.1368683772161603e-13 363.94287812500005) translate(624.3593712499999 61.6953125) scale(0.75) translate(-662.01562 16.90625)"></path>
        <path id="path461111" style="font-style:normal;font-weight:400;font-size:32px;line-height:1;font-family:'Roboto Slab';font-variant-ligatures:none;text-align:center;text-anchor:middle" d="m 694.78125,-14.921875 -2.03125,0.3125 3.48437,9.625 0.28125,1.21875 h 0.0937 l 0.29688,-1.21875 3.375,-9.625 -2.04688,-0.3125 v -1.984375 h 6.53125 v 1.984375 L 703.375,-14.6875 697.70312,0 H 695.375 l -5.73438,-14.6875 -1.39062,-0.234375 v -1.984375 h 6.53125 z" stroke-width="0" stroke-linejoin="miter" stroke-miterlimit="2" fill="#007c91" stroke="#007c91" transform="translate(1.1368683772161603e-13 363.94287812500005) translate(644.0351562499999 61.6953125) scale(0.75) translate(-688.25 16.90625)"></path>
        <path id="path461113" style="font-style:normal;font-weight:400;font-size:32px;line-height:1;font-family:'Roboto Slab';font-variant-ligatures:none;text-align:center;text-anchor:middle" d="m 717.64062,0 q -0.14062,-0.6875 -0.21875,-1.234375 -0.0781,-0.546875 -0.10937,-1.09375 -0.89063,1.140625 -2.23438,1.90625 -1.32812,0.75 -2.84375,0.75 -2.64062,0 -4.01562,-1.28125 -1.375,-1.296875 -1.375,-3.640625 0,-2.40625 1.9375,-3.703125 1.95312,-1.3125 5.34375,-1.3125 h 3.17187 v -1.96875 q 0,-1.484375 -0.9375,-2.34375 -0.9375,-0.875 -2.60937,-0.875 -1.15625,0 -2.04688,0.296875 -0.875,0.296875 -1.42187,0.8125 l -0.32813,1.78125 h -2.375 v -3.28125 q 1.15625,-0.921875 2.79688,-1.46875 1.64062,-0.5625 3.5625,-0.5625 2.875,0 4.65625,1.46875 1.78125,1.46875 1.78125,4.203125 v 8.140625 q 0,0.328125 0,0.640625 0.0156,0.3125 0.0469,0.625 l 1.25,0.171875 V 0 Z m -4.95312,-2.25 q 1.53125,0 2.79687,-0.734375 Q 716.75,-3.71875 717.29687,-4.75 v -2.78125 h -3.28125 q -1.89062,0 -3,0.875 -1.09375,0.875 -1.09375,2.125 0,1.109375 0.6875,1.703125 0.6875,0.578125 2.07813,0.578125 z" stroke-width="0" stroke-linejoin="miter" stroke-miterlimit="2" fill="#007c91" stroke="#007c91" transform="translate(1.1368683772161603e-13 363.94287812500005) translate(657.9804687499999 61.4609375) scale(0.75) translate(-706.84375 17.21875)"></path>
        <path id="path461115" style="font-style:normal;font-weight:400;font-size:32px;line-height:1;font-family:'Roboto Slab';font-variant-ligatures:none;text-align:center;text-anchor:middle" d="m 736.32812,-2.5 q -0.79687,1.359375 -2.0625,2.09375 -1.25,0.734375 -2.89062,0.734375 -2.75,0 -4.29688,-1.765625 -1.54687,-1.765625 -1.54687,-5.5 v -7.546875 l -1.9375,-0.4375 v -1.984375 h 1.9375 3.07812 v 10 q 0,2.703125 0.79688,3.71875 0.79687,1.015625 2.48437,1.015625 1.64063,0 2.70313,-0.65625 1.07812,-0.671875 1.625,-1.890625 v -9.765625 l -2.26563,-0.4375 v -1.984375 h 2.26563 3.07812 v 14.5 l 1.9375,0.4375 V 0 h -4.70312 z" stroke-width="0" stroke-linejoin="miter" stroke-miterlimit="2" fill="#007c91" stroke="#007c91" transform="translate(1.1368683772161603e-13 363.94287812500005) translate(670.5429687499998 61.6953125) scale(0.75) translate(-723.59375 16.90625)"></path>
        <path id="path461117" style="font-style:normal;font-weight:400;font-size:32px;line-height:1;font-family:'Roboto Slab';font-variant-ligatures:none;text-align:center;text-anchor:middle" d="M 743.25,-22.390625 V -24.375 h 5.625 v 21.96875 l 2.54687,0.4375 V 0 H 743.25 v -1.96875 l 2.54687,-0.4375 v -19.546875 z" stroke-width="0" stroke-linejoin="miter" stroke-miterlimit="2" fill="#007c91" stroke="#007c91" transform="translate(1.1368683772161603e-13 363.94287812500005) translate(685.2851562499998 56.09375) scale(0.75) translate(-743.25 24.375)"></path>
        <path id="path461119" style="font-style:normal;font-weight:400;font-size:32px;line-height:1;font-family:'Roboto Slab';font-variant-ligatures:none;text-align:center;text-anchor:middle" d="m 759.10937,-20.984375 v 4.078125 h 3.20313 v 2.28125 h -3.20313 v 10.265625 q 0,1.1875 0.48438,1.671875 0.5,0.484375 1.3125,0.484375 0.40625,0 0.90625,-0.0625 0.51562,-0.078125 0.85937,-0.15625 l 0.42188,2.109375 q -0.4375,0.28125 -1.28125,0.453125 -0.84375,0.1875 -1.6875,0.1875 -1.875,0 -2.98438,-1.125 -1.10937,-1.140625 -1.10937,-3.5625 V -14.625 h -2.67188 v -2.28125 h 2.67188 v -4.078125 z" stroke-width="0" stroke-linejoin="miter" stroke-miterlimit="2" fill="#007c91" stroke="#007c91" transform="translate(1.1368683772161603e-13 363.94287812500005) translate(692.8671837499998 58.63671875) scale(0.75) translate(-753.35937 20.984375)"></path>
      </g>
      <g id="title" style="font-style:normal;font-weight:300;font-size:72px;line-height:1;font-family:'Montserrat Light Alt1';font-variant-ligatures:none;text-align:center;text-anchor:middle" transform="translate(0 0)">
        <path id="path461122" style="font-style:normal;font-weight:300;font-size:72px;line-height:1;font-family:'Montserrat Light Alt1';font-variant-ligatures:none;text-align:center;text-anchor:middle" d="M 374.534,-50.4 V 0 h 32.688 V -3.312 H 378.206 V -50.4 Z" stroke-width="0" stroke-linejoin="miter" stroke-miterlimit="2" fill="#007c91" stroke="#007c91" transform="translate(0 297.161828125) translate(309.32324 30.488000000000014) scale(1.43) translate(-374.534 50.4)"></path>
        <path id="path461124" style="font-style:normal;font-weight:300;font-size:72px;line-height:1;font-family:'Montserrat Light Alt1';font-variant-ligatures:none;text-align:center;text-anchor:middle" d="M 415.5695,-37.584 V 0 h 3.6 v -37.584 z m -0.288,-9.936 c 0.576,0.576 1.224,0.792 2.088,0.792 0.792,0 1.512,-0.288 2.088,-0.864 0.576,-0.576 0.864,-1.224 0.864,-2.088 0,-0.792 -0.288,-1.44 -0.864,-2.016 -0.576,-0.576 -1.296,-0.864 -2.088,-0.864 -0.864,0 -1.512,0.288 -2.088,0.864 -0.576,0.576 -0.864,1.296 -0.864,2.088 0,0.864 0.288,1.512 0.864,2.088 z" stroke-width="0" stroke-linejoin="miter" stroke-miterlimit="2" fill="#00979c" stroke="#00979c" transform="translate(0 297.161828125) translate(366.356645 27.399200000000008) scale(1.43) translate(-414.4175 52.56)"></path>
        <path id="path461126" style="font-style:normal;font-weight:300;font-size:72px;line-height:1;font-family:'Montserrat Light Alt1';font-variant-ligatures:none;text-align:center;text-anchor:middle" d="m 475.532,-50.4 h -3.816 L 451.34,-4.752 430.964,-50.4 h -4.032 L 449.396,0 h 3.672 z" stroke-width="0" stroke-linejoin="miter" stroke-miterlimit="2" fill="#00b19f" stroke="#00b19f" transform="translate(0 297.161828125) translate(384.25238 30.488000000000014) scale(1.43) translate(-426.932 50.4)"></path>
        <path id="path461128" style="font-style:normal;font-weight:300;font-size:72px;line-height:1;font-family:'Montserrat Light Alt1';font-variant-ligatures:none;text-align:center;text-anchor:middle" d="m 500.68475,-50.4 h -3.672 L 473.82875,0 h 3.96 l 21.024,-46.368 21.096,46.368 h 3.96 z" stroke-width="0" stroke-linejoin="miter" stroke-miterlimit="2" fill="#00c99c" stroke="#00c99c" transform="translate(0 297.161828125) translate(451.3147325 30.488000000000014) scale(1.43) translate(-473.82875 50.4)"></path>
        <path id="path461130" style="font-style:normal;font-weight:300;font-size:72px;line-height:1;font-family:'Montserrat Light Alt1';font-variant-ligatures:none;text-align:center;text-anchor:middle" d="m 536.71737,-5.184 c 3.528,3.744 8.49601,5.544 14.904,5.544 6.336,0 11.30401,-1.8 14.904,-5.544 3.528,-3.672 5.32801,-9.072 5.32801,-16.2 V -50.4 h -3.67201 v 28.872 c 0,6.192 -1.44,10.872 -4.248,13.896 -2.88,3.096 -6.91199,4.608 -12.23999,4.608 -5.40001,0 -9.504,-1.512 -12.312,-4.608 -2.88,-3.024 -4.24801,-7.704 -4.24801,-13.896 V -50.4 h -3.672 v 29.016 c 0,7.128 1.72801,12.528 5.256,16.2 z" stroke-width="0" stroke-linejoin="miter" stroke-miterlimit="2" fill="#00ce90" stroke="#00ce90" transform="translate(0 297.161828125) translate(533.7293791 30.488000000000014) scale(1.43) translate(-531.46137 50.4)"></path>
        <path id="path461132" style="font-style:normal;font-weight:300;font-size:72px;line-height:1;font-family:'Montserrat Light Alt1';font-variant-ligatures:none;text-align:center;text-anchor:middle" d="M 588.98712,-50.4 V 0 h 32.688 V -3.312 H 592.65913 V -50.4 Z" stroke-width="0" stroke-linejoin="miter" stroke-miterlimit="2" fill="#00d383" stroke="#00d383" transform="translate(0 297.161828125) translate(615.9912016 30.488000000000014) scale(1.43) translate(-588.98712 50.4)"></path>
        <path id="path461134" style="font-style:normal;font-weight:300;font-size:72px;line-height:1;font-family:'Montserrat Light Alt1';font-variant-ligatures:none;text-align:center;text-anchor:middle" d="M 636.182,-47.088 V 0 h 3.672 v -47.088 h 18.144 V -50.4 h -39.96 v 3.312 z" stroke-width="0" stroke-linejoin="miter" stroke-miterlimit="2" fill="#00d877" stroke="#00d877" transform="translate(0 297.161828125) translate(657.53396 30.488000000000014) scale(1.43) translate(-618.038 50.4)"></path>
      </g>
      <image xlink:href="" id="icon" x="0" y="0" style="display: none;"></image>
    </g>
  </g>
</svg>